<?xml version="1.0" encoding="UTF-8"?>
<svg xmlns="http://www.w3.org/2000/svg" xmlns:xlink="http://www.w3.org/1999/xlink" width="608.556pt" height="256.387pt" viewBox="0 0 608.556 256.387">
<path fill-rule="nonzero" fill="rgb(94.099426%, 37.998962%, 60.798645%)" fill-opacity="1" d="M 105.90625 95.234375 C 102.429688 95.234375 95.125 93.324219 95.125 72.625 L 95.125 26.183594 C 95.125 26.007812 105.90625 12.617188 117.039062 12.617188 C 123.128906 12.617188 131.996094 15.402344 131.996094 36.445312 L 131.996094 72.625 C 131.996094 93.324219 124.691406 95.234375 121.386719 95.234375 L 121.386719 98.886719 L 159.652344 98.886719 L 159.652344 95.234375 C 156.175781 95.234375 148.871094 93.324219 148.871094 72.625 L 148.871094 34.878906 C 148.871094 32.097656 148.695312 29.488281 148.175781 27.054688 C 150.78125 23.75 160.695312 12.617188 170.957031 12.617188 C 176.871094 12.617188 185.917969 15.402344 185.917969 36.445312 L 185.917969 72.625 C 185.917969 93.324219 178.613281 95.234375 175.132812 95.234375 L 175.132812 98.886719 L 213.574219 98.886719 L 213.574219 95.234375 C 210.09375 95.234375 202.789062 93.324219 202.789062 72.625 L 202.789062 34.878906 C 202.789062 12.964844 187.832031 5.835938 175.132812 5.835938 C 160.523438 5.835938 149.21875 18.53125 146.609375 21.835938 C 142.085938 10.007812 131.128906 5.835938 121.386719 5.835938 C 105.90625 5.835938 95.125 19.402344 95.125 19.574219 L 95.125 12.964844 C 95.125 12.964844 95.472656 5.835938 90.601562 5.835938 C 84.863281 5.835938 67.46875 8.964844 67.46875 8.964844 L 67.46875 12.617188 C 73.210938 12.617188 78.253906 15.921875 78.253906 26.707031 L 78.253906 72.625 C 78.253906 93.324219 70.949219 95.234375 67.46875 95.234375 L 67.46875 98.886719 L 105.90625 98.886719 Z M 105.90625 95.234375 "/>
<path fill-rule="nonzero" fill="rgb(94.099426%, 37.998962%, 60.798645%)" fill-opacity="1" d="M 269.222656 47.054688 L 269.222656 82.539062 C 269.222656 82.539062 264.003906 89.496094 253.046875 89.496094 C 241.914062 89.496094 232.695312 82.714844 232.695312 72.449219 C 232.695312 50.1875 266.789062 47.230469 269.222656 47.054688 M 243.480469 98.886719 C 255.65625 98.886719 264.179688 93.496094 269.222656 88.972656 L 269.222656 91.582031 C 269.222656 91.582031 268.875 98.886719 273.746094 98.886719 C 279.484375 98.886719 296.878906 95.757812 296.878906 95.757812 L 296.878906 92.105469 C 291.136719 92.105469 286.265625 88.625 286.265625 77.84375 L 286.265625 42.011719 C 286.265625 13.835938 266.613281 5.832031 253.222656 5.832031 C 236 5.832031 224.347656 14.183594 224.347656 22.183594 C 224.347656 32.621094 241.046875 32.792969 241.046875 22.011719 C 241.046875 18.183594 243.480469 10.53125 253.570312 10.53125 C 260.351562 10.53125 269.222656 16.617188 269.222656 35.054688 L 269.222656 42.359375 C 266.09375 42.707031 215.824219 48.273438 215.824219 75.582031 C 215.824219 88.800781 228 98.886719 243.480469 98.886719 "/>
<path fill-rule="nonzero" fill="rgb(94.099426%, 37.998962%, 60.798645%)" fill-opacity="1" d="M 340.527344 95.234375 C 337.050781 95.234375 329.742188 93.324219 329.742188 72.625 L 329.742188 26.183594 C 329.917969 26.007812 341.226562 12.617188 352.355469 12.617188 C 360.878906 12.617188 366.617188 16.792969 366.617188 35.578125 L 366.617188 72.625 C 366.617188 93.324219 359.488281 95.234375 356.007812 95.234375 L 356.007812 98.886719 L 394.273438 98.886719 L 394.273438 95.234375 C 390.796875 95.234375 383.488281 93.324219 383.488281 72.625 L 383.488281 40.097656 C 383.488281 10.878906 367.660156 5.835938 356.007812 5.835938 C 340.527344 5.835938 329.917969 19.402344 329.742188 19.574219 L 329.742188 12.964844 C 329.742188 12.964844 330.265625 5.835938 325.398438 5.835938 C 319.480469 5.835938 302.089844 8.964844 302.089844 8.964844 L 302.089844 12.617188 C 308.003906 12.617188 312.875 15.921875 312.875 26.707031 L 312.875 72.625 C 312.875 93.324219 305.566406 95.234375 302.089844 95.234375 L 302.089844 98.886719 L 340.527344 98.886719 Z M 340.527344 95.234375 "/>
<path fill-rule="nonzero" fill="rgb(94.099426%, 37.998962%, 60.798645%)" fill-opacity="1" d="M 449.925781 47.054688 L 449.925781 82.539062 C 449.925781 82.539062 444.707031 89.496094 433.75 89.496094 C 422.621094 89.496094 413.402344 82.714844 413.402344 72.449219 C 413.402344 50.1875 447.492188 47.230469 449.925781 47.054688 M 424.183594 98.886719 C 436.359375 98.886719 444.882812 93.496094 449.925781 88.972656 L 449.925781 91.582031 C 449.925781 91.582031 449.578125 98.886719 454.449219 98.886719 C 460.1875 98.886719 477.582031 95.757812 477.582031 95.757812 L 477.582031 92.105469 C 471.84375 92.105469 466.972656 88.625 466.972656 77.84375 L 466.972656 42.011719 C 466.972656 13.835938 447.316406 5.832031 433.925781 5.832031 C 416.707031 5.832031 405.050781 14.183594 405.050781 22.183594 C 405.050781 32.621094 421.75 32.792969 421.75 22.011719 C 421.75 18.183594 424.183594 10.53125 434.273438 10.53125 C 441.058594 10.53125 449.925781 16.617188 449.925781 35.054688 L 449.925781 42.359375 C 446.796875 42.707031 396.53125 48.273438 396.53125 75.582031 C 396.53125 88.800781 408.707031 98.886719 424.183594 98.886719 "/>
<path fill-rule="nonzero" fill="rgb(94.099426%, 37.998962%, 60.798645%)" fill-opacity="1" d="M 526.101562 82.539062 C 526.101562 89.667969 520.539062 94.019531 511.316406 94.019531 C 485.402344 94.019531 484.011719 65.144531 484.011719 65.144531 L 482.96875 65.144531 L 482.96875 91.582031 C 482.96875 91.582031 493.925781 98.886719 509.230469 98.886719 C 524.539062 98.886719 540.886719 91.582031 540.886719 75.582031 C 540.886719 48.796875 496.011719 43.402344 496.011719 23.226562 C 496.011719 16.269531 502.101562 10.53125 510.796875 10.53125 C 537.058594 10.53125 537.582031 35.578125 537.582031 35.578125 L 538.628906 35.578125 L 538.628906 14.183594 C 538.628906 14.183594 527.496094 5.835938 511.839844 5.835938 C 498.96875 5.835938 482.792969 12.964844 482.792969 29.140625 C 482.792969 56.449219 526.101562 60.96875 526.101562 82.539062 "/>
<path fill-rule="nonzero" fill="rgb(94.099426%, 37.998962%, 60.798645%)" fill-opacity="1" d="M 35.054688 215.769531 L 35.054688 156.109375 C 35.054688 156.109375 35.402344 148.980469 30.53125 148.980469 C 24.792969 148.980469 7.398438 152.109375 7.398438 152.109375 L 7.398438 155.761719 C 13.140625 155.761719 18.183594 159.066406 18.183594 169.851562 L 18.183594 215.769531 C 18.183594 236.46875 10.878906 238.382812 7.398438 238.382812 L 7.398438 242.035156 L 45.664062 242.035156 L 45.664062 238.382812 C 42.359375 238.382812 35.054688 236.46875 35.054688 215.769531 "/>
<path fill-rule="nonzero" fill="rgb(94.099426%, 37.998962%, 60.798645%)" fill-opacity="1" d="M 26.53125 133.324219 C 32.097656 133.324219 36.445312 128.804688 36.445312 123.410156 C 36.445312 117.847656 32.097656 113.496094 26.53125 113.496094 C 21.140625 113.496094 16.617188 117.847656 16.617188 123.410156 C 16.617188 128.804688 21.140625 133.324219 26.53125 133.324219 "/>
<path fill-rule="nonzero" fill="rgb(94.099426%, 37.998962%, 60.798645%)" fill-opacity="1" d="M 132.28125 215.769531 L 132.28125 183.246094 C 132.28125 154.023438 116.453125 148.980469 104.800781 148.980469 C 89.320312 148.980469 78.710938 162.546875 78.535156 162.71875 L 78.535156 156.109375 C 78.535156 156.109375 79.058594 148.980469 74.1875 148.980469 C 68.273438 148.980469 50.882812 152.109375 50.882812 152.109375 L 50.882812 155.761719 C 56.796875 155.761719 61.664062 159.066406 61.664062 169.851562 L 61.664062 215.769531 C 61.664062 236.46875 54.359375 238.382812 50.882812 238.382812 L 50.882812 242.035156 L 89.320312 242.035156 L 89.320312 238.382812 C 85.839844 238.382812 78.535156 236.46875 78.535156 215.769531 L 78.535156 169.332031 C 78.710938 169.15625 90.015625 155.761719 101.148438 155.761719 C 109.671875 155.761719 115.410156 159.9375 115.410156 178.722656 L 115.410156 215.769531 C 115.410156 236.46875 108.277344 238.382812 104.800781 238.382812 L 104.800781 242.035156 L 143.066406 242.035156 L 143.066406 238.382812 C 139.585938 238.382812 132.28125 236.46875 132.28125 215.769531 "/>
<path fill-rule="nonzero" fill="rgb(94.099426%, 37.998962%, 60.798645%)" fill-opacity="1" d="M 213.851562 148.980469 L 188.109375 148.980469 L 188.109375 152.632812 C 191.589844 152.632812 199.070312 155.414062 192.808594 175.242188 C 190.546875 182.027344 185.152344 199.246094 180.285156 214.378906 C 175.414062 199.246094 169.847656 182.027344 167.761719 175.242188 C 161.324219 155.414062 168.980469 152.632812 172.28125 152.632812 L 172.28125 148.980469 L 133.84375 148.980469 L 133.84375 152.632812 C 137.324219 152.632812 143.757812 155.414062 150.019531 175.242188 C 155.238281 191.59375 171.414062 242.035156 171.414062 242.035156 L 176.457031 242.035156 C 176.457031 242.035156 194.722656 184.808594 197.679688 175.242188 C 203.9375 155.414062 210.550781 152.632812 213.851562 152.632812 Z M 213.851562 148.980469 "/>
<path fill-rule="nonzero" fill="rgb(94.099426%, 37.998962%, 60.798645%)" fill-opacity="1" d="M 257.683594 181.503906 L 228.285156 181.503906 C 230.027344 162.71875 237.679688 153.675781 245.332031 153.675781 C 256.984375 153.675781 261.160156 169.503906 261.160156 177.851562 C 261.160156 180.289062 260.117188 181.503906 257.683594 181.503906 M 246.027344 148.980469 C 229.332031 148.980469 210.371094 163.765625 210.371094 195.421875 C 210.371094 221.164062 226.71875 242.035156 247.070312 242.035156 C 262.378906 242.035156 271.769531 231.945312 275.597656 226.554688 C 276.464844 225.511719 275.945312 224.121094 274.726562 223.597656 C 273.855469 223.25 272.988281 223.597656 272.464844 224.121094 C 270.726562 226.378906 264.984375 232.640625 255.417969 232.640625 C 243.242188 232.640625 227.9375 222.03125 227.9375 189.679688 L 227.9375 186.375 L 271.941406 186.375 C 275.769531 186.375 277.855469 184.113281 277.855469 180.289062 C 277.855469 162.199219 261.507812 148.980469 246.027344 148.980469 "/>
<path fill-rule="nonzero" fill="rgb(94.099426%, 37.998962%, 60.798645%)" fill-opacity="1" d="M 296.289062 166.371094 C 296.289062 159.414062 302.378906 153.675781 311.074219 153.675781 C 337.335938 153.675781 337.859375 178.722656 337.859375 178.722656 L 338.902344 178.722656 L 338.902344 157.328125 C 338.902344 157.328125 327.773438 148.980469 312.117188 148.980469 C 299.246094 148.980469 283.070312 156.109375 283.070312 172.285156 C 283.070312 199.59375 326.378906 204.117188 326.378906 225.683594 C 326.378906 232.816406 320.8125 237.164062 311.59375 237.164062 C 285.679688 237.164062 284.289062 208.292969 284.289062 208.292969 L 283.246094 208.292969 L 283.246094 234.730469 C 283.246094 234.730469 294.203125 242.035156 309.507812 242.035156 C 324.816406 242.035156 341.164062 234.730469 341.164062 218.726562 C 341.164062 191.941406 296.289062 186.546875 296.289062 166.371094 "/>
<path fill-rule="nonzero" fill="rgb(94.099426%, 37.998962%, 60.798645%)" fill-opacity="1" d="M 375.425781 234.207031 C 371.945312 234.207031 371.078125 231.773438 371.078125 224.121094 L 371.078125 153.675781 L 387.425781 153.675781 L 387.425781 148.980469 L 371.078125 148.980469 L 371.078125 130.019531 L 367.773438 130.019531 C 367.773438 130.019531 364.640625 148.980469 343.421875 148.980469 L 343.421875 153.675781 C 350.03125 153.503906 354.03125 158.023438 354.03125 166.722656 L 354.03125 218.554688 C 354.03125 224.640625 353.164062 242.035156 369.164062 242.035156 C 377.863281 242.035156 386.382812 231.945312 386.382812 231.945312 L 383.949219 229.683594 C 383.949219 229.683594 378.90625 234.207031 375.425781 234.207031 "/>
<path fill-rule="nonzero" fill="rgb(94.099426%, 37.998962%, 60.798645%)" fill-opacity="1" d="M 421.863281 153.675781 C 433.515625 153.675781 437.691406 169.503906 437.691406 177.851562 C 437.691406 180.285156 436.648438 181.503906 434.210938 181.503906 L 404.816406 181.503906 C 406.558594 162.71875 414.210938 153.675781 421.863281 153.675781 M 595.511719 197.121094 C 591.347656 196.175781 588 198.394531 586.539062 202.21875 C 586.324219 202.777344 586.101562 203.332031 585.886719 203.890625 C 585.847656 203.984375 585.832031 204.027344 585.808594 204.089844 C 585.363281 205.085938 584.925781 206.082031 584.453125 207.0625 C 583.589844 208.859375 582.664062 210.621094 581.675781 212.351562 C 580.585938 214.25 579.425781 216.109375 578.195312 217.921875 C 577.632812 218.742188 577.058594 219.558594 576.46875 220.359375 C 576.394531 220.464844 575.90625 221.105469 575.785156 221.277344 C 575.601562 221.503906 575.425781 221.734375 575.242188 221.957031 C 572.632812 225.191406 570.039062 228.648438 566.644531 231.058594 C 564.261719 232.746094 561.175781 231.675781 560.011719 230.9375 C 559.289062 230.480469 558.230469 229.34375 557.28125 226.492188 C 556.363281 223.734375 555.605469 219.683594 555.03125 214.449219 C 554.4375 209.082031 553.972656 201.914062 553.648438 193.136719 C 553.210938 182.402344 552.738281 173.769531 552.246094 167.488281 C 551.726562 160.808594 550.816406 156.066406 549.460938 152.992188 C 547.800781 149.222656 544.808594 147.144531 541.046875 147.144531 C 537.957031 147.144531 535.132812 148.65625 532.640625 151.644531 C 530.523438 154.1875 528.371094 158.015625 526.050781 163.351562 C 523.839844 168.4375 521.164062 175.289062 518.101562 183.710938 C 514.855469 192.585938 512.175781 199.398438 510.132812 203.96875 C 507.660156 209.5 506.21875 211.902344 505.441406 212.945312 C 505.03125 213.503906 504.710938 213.847656 504.484375 214.058594 C 504.433594 213.984375 504.375 213.898438 504.3125 213.789062 C 504.117188 213.449219 503.414062 211.90625 502.71875 206.355469 C 502.179688 202.066406 501.632812 195.386719 501.097656 186.527344 C 500.65625 178.300781 500.183594 171.570312 499.691406 166.527344 C 499.191406 161.421875 498.621094 157.410156 497.992188 154.59375 C 497.238281 151.257812 496.214844 149.0625 494.765625 147.695312 C 493.246094 146.257812 491.304688 145.5 489.148438 145.5 C 485.753906 145.5 482.414062 147.390625 479.21875 151.117188 C 476.441406 154.355469 473.710938 158.675781 471.097656 163.960938 C 468.546875 169.117188 466.070312 174.929688 463.75 181.242188 C 461.433594 187.523438 459.285156 194.023438 457.363281 200.558594 C 455.433594 207.117188 453.738281 213.378906 452.320312 219.164062 C 452.234375 219.519531 452.152344 219.867188 452.066406 220.21875 C 451.191406 221.300781 450.175781 222.585938 448.996094 224.117188 C 447.257812 226.378906 441.515625 232.640625 431.953125 232.640625 C 419.777344 232.640625 404.46875 222.03125 404.46875 189.679688 L 404.46875 186.375 L 448.476562 186.375 C 452.300781 186.375 454.386719 184.113281 454.386719 180.285156 C 454.386719 162.199219 438.039062 148.980469 422.558594 148.980469 C 405.863281 148.980469 386.902344 163.765625 386.902344 195.421875 C 386.902344 221.160156 403.253906 242.035156 423.601562 242.035156 C 436.597656 242.035156 445.328125 234.765625 450.007812 229.269531 C 449.625 231.109375 449.289062 232.839844 449 234.449219 C 448.191406 238.921875 447.800781 241.992188 447.800781 243.835938 C 447.800781 246.855469 449.769531 248.890625 452.691406 248.890625 C 455.914062 248.890625 458.582031 247.816406 460.621094 245.695312 C 462.554688 243.691406 463.679688 241.289062 463.960938 238.621094 C 465.367188 227.585938 467.09375 217.105469 469.097656 207.476562 C 471.09375 197.875 473.222656 189.371094 475.433594 182.210938 C 477.613281 175.136719 479.777344 169.5625 481.875 165.640625 C 483.203125 163.144531 484.179688 161.980469 484.722656 161.449219 C 484.855469 161.863281 485.027344 162.507812 485.214844 163.492188 C 485.578125 165.414062 485.949219 168.421875 486.320312 172.425781 C 486.703125 176.460938 487.058594 182.078125 487.386719 189.148438 C 487.820312 197.054688 488.324219 203.523438 488.875 208.359375 C 489.449219 213.410156 490.160156 217.199219 491.054688 219.941406 C 492.082031 223.09375 493.421875 225.234375 495.148438 226.484375 C 496.851562 227.730469 498.871094 228.363281 501.136719 228.363281 C 504.597656 228.363281 507.773438 226.835938 510.582031 223.816406 C 513.058594 221.160156 515.617188 216.933594 518.40625 210.902344 C 521.042969 205.191406 524.21875 197.273438 527.847656 187.378906 C 530.578125 180.066406 532.707031 174.472656 534.234375 170.59375 C 535.871094 166.4375 536.914062 164.4375 537.527344 163.472656 C 537.53125 163.496094 537.542969 163.523438 537.546875 163.550781 C 538.054688 165.679688 538.472656 169.351562 538.789062 174.464844 C 539.117188 179.808594 539.449219 187.046875 539.769531 196.003906 C 540.207031 206.761719 540.90625 215.988281 541.84375 223.425781 C 542.835938 231.316406 544.585938 237.179688 547.191406 241.351562 C 550.058594 245.960938 554.636719 248.394531 560.425781 248.394531 C 567.253906 248.394531 570.78125 245.839844 572.894531 244.488281 C 577.3125 241.65625 581.054688 237.644531 584.421875 233.660156 C 591.402344 225.386719 596.75 216.203125 600.609375 206.097656 C 601.972656 202.527344 599.101562 197.941406 595.511719 197.121094 "/>
</svg>
